<svg width="18" height="20" viewBox="0 0 18 20" fill="none" xmlns="http://www.w3.org/2000/svg">
<path fill-rule="evenodd" clip-rule="evenodd" d="M11.8324 3.19867C12.5792 2.33425 12.9539 1.40034 12.9539 0.400114V0.400101C12.9539 0.267438 12.9476 0.133715 12.9324 0C12.4122 0.0263242 11.859 0.180046 11.2742 0.458013C10.6882 0.74019 10.2049 1.09392 9.82493 1.51934C9.06382 2.35956 8.63523 3.38718 8.63523 4.3474C8.63523 4.48011 8.64396 4.60641 8.65902 4.7264C9.84113 4.8201 10.9312 4.22629 11.8324 3.19867ZM15.8082 17.5193C16.2335 16.928 16.6006 16.2848 16.9107 15.5861C17.0386 15.2898 17.1588 14.9812 17.2727 14.6589C16.7474 14.4441 16.2753 14.1417 15.8525 13.7503C14.9197 12.9071 14.445 11.8452 14.4311 10.5691C14.4159 8.93072 15.1791 7.6536 16.7221 6.74177C15.8601 5.54675 14.564 4.88343 12.8387 4.74764C12.202 4.69492 11.4249 4.82874 10.504 5.15195C9.53025 5.50045 8.95584 5.67526 8.78636 5.67526C8.55966 5.67526 8.04259 5.52576 7.23731 5.23095C6.42974 4.93714 5.7799 4.78763 5.28435 4.78763C4.37869 4.80233 3.53771 5.03195 2.75938 5.48255C1.98106 5.93316 1.35919 6.54696 0.891737 7.32509C0.29695 8.29383 0 9.44984 0 10.7902C0 11.9603 0.220244 13.1689 0.659594 14.417C1.06983 15.5725 1.59348 16.586 2.23042 17.4601C2.82406 18.2786 3.31961 18.8563 3.7158 19.1934C4.33654 19.7563 4.95841 20.0242 5.58231 19.9983C5.99255 19.9847 6.52911 19.8477 7.19516 19.5847C7.86019 19.323 8.48194 19.1934 9.06166 19.1934C9.61443 19.1934 10.219 19.323 10.8768 19.5847C11.5325 19.8477 12.0957 19.9773 12.5628 19.9773C13.2134 19.9625 13.821 19.702 14.388 19.1934C14.7538 18.8835 15.2285 18.3255 15.8082 17.5193Z" fill="black"/>
</svg>
