<svg width="6" height="5" viewBox="0 0 6 5" fill="none" xmlns="http://www.w3.org/2000/svg">
<path d="M5.44115 1.38416L3.74661 3.06353C3.3913 3.41513 3.03733 3.76674 2.68402 4.11768C2.45804 4.34173 2.0734 4.34173 1.84608 4.11768C1.77675 4.04828 1.70743 3.97955 1.63943 3.91081C1.1488 3.42372 0.659504 2.93796 0.16954 2.45021C-0.0644421 2.21889 -0.0484433 1.85473 0.16954 1.6201C0.385524 1.38614 0.788161 1.40267 1.00748 1.6201C1.07747 1.68884 1.1468 1.75757 1.2148 1.82631C1.56544 2.17395 1.91608 2.52357 2.26538 2.8712C2.82068 2.32067 3.37463 1.77211 3.92926 1.22158L4.99185 0.168089C5.22583 -0.0638903 5.59313 -0.0480285 5.82978 0.168089C6.0651 0.384206 6.04843 0.782073 5.82912 0.999512C5.70046 1.12707 5.5698 1.25661 5.44115 1.38416Z" fill="white"/>
</svg>
