<svg width="16" height="16" viewBox="0 0 16 16" fill="none" xmlns="http://www.w3.org/2000/svg">
<path d="M15.7119 14.9131L12.0557 11.2569H12.0163C13.1432 9.9281 13.7127 8.21503 13.6056 6.47602C13.4986 4.737 12.7232 3.10675 11.4417 1.92628C10.1603 0.74581 8.47199 0.106575 6.73005 0.142289C4.9881 0.178003 3.32744 0.8859 2.09544 2.1179C0.863439 3.3499 0.155542 5.01056 0.119828 6.75251C0.0841139 8.49445 0.723349 10.1827 1.90382 11.4642C3.08428 12.7457 4.71454 13.521 6.45355 13.6281C8.19257 13.7352 9.90564 13.1657 11.2344 12.0387C11.2344 12.0387 11.2344 12.0669 11.2344 12.0781L14.8907 15.7344C14.9429 15.7871 15.0052 15.8289 15.0737 15.8575C15.1423 15.8861 15.2158 15.9008 15.29 15.9008C15.3643 15.9008 15.4378 15.8861 15.5064 15.8575C15.5749 15.8289 15.6371 15.7871 15.6894 15.7344C15.7471 15.6833 15.7936 15.6209 15.8262 15.5512C15.8588 15.4814 15.8767 15.4056 15.8788 15.3286C15.8809 15.2516 15.8672 15.175 15.8385 15.1035C15.8098 15.0321 15.7667 14.9673 15.7119 14.9131ZM6.87503 12.5C5.76251 12.5 4.67497 12.1701 3.74995 11.552C2.82492 10.9339 2.10395 10.0554 1.67821 9.02759C1.25247 7.99975 1.14107 6.86875 1.35811 5.77761C1.57516 4.68647 2.11088 3.68419 2.89756 2.89752C3.68423 2.11085 4.6865 1.57512 5.77765 1.35807C6.86879 1.14103 7.99979 1.25243 9.02763 1.67817C10.0555 2.10391 10.934 2.82488 11.552 3.74991C12.1701 4.67494 12.5 5.76247 12.5 6.87499C12.5 7.61368 12.3545 8.34513 12.0719 9.02759C11.7892 9.71004 11.3748 10.3301 10.8525 10.8525C10.3302 11.3748 9.71008 11.7891 9.02763 12.0718C8.34517 12.3545 7.61372 12.5 6.87503 12.5Z" fill="white"/>
</svg>
